<?xml version="1.0" standalone="no"?>
<!DOCTYPE svg PUBLIC "-//W3C//DTD SVG 20010904//EN"
 "http://www.w3.org/TR/2001/REC-SVG-20010904/DTD/svg10.dtd">
<svg version="1.0" xmlns="http://www.w3.org/2000/svg"
 width="960.000000pt" height="960.000000pt" viewBox="0 0 960.000000 960.000000"
 preserveAspectRatio="xMidYMid meet">
<metadata>
Created by potrace 1.14, written by Peter Selinger 2001-2017
</metadata>
<g transform="translate(0.000000,960.000000) scale(0.100000,-0.100000)"
fill="#000000" stroke="none">
<path d="M4722 9568 c-12 -24 -25 -45 -55 -90 -10 -16 -16 -28 -12 -28 3 0 -3
-10 -15 -22 -11 -12 -20 -27 -20 -34 0 -7 -3 -14 -7 -16 -5 -1 -55 -82 -113
-178 -58 -96 -110 -184 -117 -195 -7 -11 -15 -27 -19 -35 -4 -8 -11 -17 -14
-20 -4 -3 -18 -25 -30 -50 -12 -25 -26 -47 -30 -50 -4 -3 -13 -17 -21 -32 -11
-21 -224 -375 -299 -498 -72 -116 -125 -203 -145 -240 -14 -25 -34 -58 -45
-75 -11 -16 -27 -43 -35 -60 -17 -34 -37 -67 -45 -75 -3 -3 -120 -196 -260
-429 -140 -233 -265 -440 -277 -460 -13 -20 -26 -43 -30 -51 -3 -8 -24 -41
-45 -73 -21 -32 -38 -61 -38 -63 0 -3 -13 -25 -30 -49 -16 -24 -30 -46 -30
-49 0 -2 -29 -52 -65 -111 -36 -58 -65 -110 -65 -115 0 -4 -4 -10 -8 -12 -4
-1 -38 -55 -75 -118 -97 -164 -344 -573 -354 -585 -5 -5 -12 -17 -15 -26 -3
-8 -23 -42 -44 -75 -21 -32 -45 -71 -54 -86 -30 -52 -60 -104 -84 -143 -14
-22 -40 -66 -58 -97 -18 -32 -36 -58 -40 -58 -5 0 -8 -9 -8 -19 0 -11 -3 -21
-7 -23 -11 -4 -133 -206 -133 -218 0 -6 -4 -10 -9 -10 -5 0 -11 -8 -15 -17 -3
-10 -10 -25 -15 -33 -6 -8 -33 -53 -62 -100 -28 -47 -58 -96 -67 -110 -9 -14
-15 -27 -13 -29 1 -2 -1 -7 -6 -10 -4 -3 -14 -17 -22 -31 -8 -14 -84 -140
-169 -280 -85 -140 -162 -268 -170 -285 -9 -16 -21 -35 -27 -42 -7 -6 -18 -25
-25 -42 -7 -17 -16 -31 -21 -31 -5 0 -9 -4 -9 -10 0 -12 -92 -164 -102 -168
-5 -2 -8 -8 -8 -13 0 -5 -19 -41 -42 -80 -24 -38 -50 -82 -59 -97 -9 -15 -55
-91 -102 -170 -48 -79 -87 -148 -87 -153 0 -5 -4 -9 -8 -9 -5 0 -17 -18 -27
-40 -10 -22 -22 -40 -27 -40 -4 0 -8 -5 -8 -10 0 -6 -23 -46 -50 -90 -28 -44
-50 -83 -50 -86 0 -3 -10 -20 -22 -37 -25 -34 -43 -63 -54 -87 -4 -8 -27 -45
-51 -83 -24 -37 -43 -71 -43 -76 0 -5 -6 -16 -13 -23 -7 -7 -35 -51 -61 -97
-37 -64 -46 -88 -39 -100 6 -9 14 -16 19 -16 5 0 20 -8 34 -16 34 -22 131 -80
155 -94 20 -11 116 -67 145 -85 130 -79 183 -110 191 -110 5 0 9 -5 9 -10 0
-6 3 -9 8 -8 7 2 101 -50 112 -62 3 -3 16 -11 29 -18 67 -38 97 -56 226 -132
77 -46 167 -99 200 -118 33 -19 68 -42 78 -50 9 -8 17 -12 17 -8 0 4 12 -1 27
-12 16 -11 44 -29 63 -39 19 -11 58 -34 85 -51 69 -42 424 -252 455 -269 14
-8 43 -25 65 -39 22 -13 51 -30 65 -37 14 -6 27 -14 30 -17 10 -11 132 -80
141 -80 5 0 9 -4 9 -10 0 -5 11 -12 25 -16 14 -3 25 -10 25 -15 0 -5 5 -9 10
-9 6 0 29 -12 53 -27 23 -14 67 -40 97 -57 30 -16 59 -33 65 -38 12 -10 177
-108 182 -108 2 0 43 -24 91 -53 48 -30 143 -87 212 -127 69 -40 133 -80 143
-88 9 -8 17 -11 17 -7 0 4 8 1 18 -7 9 -8 35 -25 57 -38 83 -48 104 -60 252
-148 83 -49 154 -87 157 -84 3 3 6 0 6 -6 0 -6 12 -17 28 -25 66 -34 277 -161
280 -169 2 -4 9 -8 16 -8 8 0 26 -10 42 -22 16 -13 31 -23 34 -22 4 1 37 -17
95 -53 11 -7 48 -28 82 -48 34 -19 65 -40 68 -45 3 -6 13 -10 21 -10 9 0 12 5
8 12 -4 7 -3 8 4 4 11 -6 86 29 122 58 8 6 35 22 60 36 25 13 48 28 52 34 4 6
8 7 8 2 0 -5 8 -2 18 6 9 8 93 59 185 114 93 54 182 107 198 116 16 10 29 14
29 10 0 -4 4 -2 8 4 6 10 50 38 147 94 87 50 111 65 117 75 4 5 8 6 8 1 0 -5
8 -2 18 6 9 9 33 24 52 35 19 10 84 48 143 83 133 80 123 74 234 138 51 29 95
58 98 63 4 5 11 7 16 4 5 -4 9 -2 9 3 0 5 8 12 18 16 17 5 23 9 98 58 23 15
44 24 48 21 3 -4 6 -1 6 5 0 7 5 12 10 12 6 0 23 8 38 19 15 10 106 65 202
121 188 110 326 192 622 369 103 61 192 111 197 111 6 0 11 4 11 9 0 5 8 12
18 15 9 3 26 12 37 19 85 52 198 117 206 117 5 0 9 5 9 10 0 6 5 10 10 10 6 0
27 11 48 24 20 13 105 63 187 111 83 49 158 95 168 103 9 8 17 12 17 8 0 -6
78 41 90 54 3 3 19 12 35 20 50 25 180 104 183 112 2 5 7 6 12 3 4 -3 13 2 20
10 7 8 19 15 26 15 8 0 14 4 14 8 0 4 12 13 28 20 15 6 68 37 117 67 50 31 98
58 108 62 9 3 17 9 17 14 0 5 4 9 9 9 15 0 122 66 123 75 0 4 -4 11 -9 14 -5
3 -14 17 -21 31 -7 14 -23 42 -35 62 -35 59 -210 346 -235 386 -13 20 -25 45
-29 54 -3 10 -9 18 -13 18 -4 0 -11 11 -14 25 -4 14 -11 25 -16 25 -6 0 -10 5
-10 10 0 6 -23 47 -51 92 -28 45 -63 102 -77 127 -14 25 -28 48 -31 51 -3 3
-17 25 -30 50 -13 25 -33 56 -43 69 -10 13 -18 29 -18 37 0 7 -3 14 -7 16 -10
4 -73 107 -73 119 0 5 -4 9 -10 9 -5 0 -10 4 -10 9 0 4 -38 71 -85 147 -47 76
-88 146 -92 154 -4 8 -29 50 -56 94 -27 43 -57 92 -67 110 -38 67 -90 151 -98
161 -5 6 -11 15 -13 21 -2 5 -33 58 -69 117 -69 114 -69 115 -115 192 -16 28
-32 52 -36 55 -4 3 -13 17 -18 30 -6 14 -21 41 -34 61 -33 54 -417 691 -430
714 -7 11 -15 22 -18 25 -4 3 -9 15 -13 28 -4 12 -12 22 -17 22 -5 0 -9 5 -9
10 0 6 -16 36 -35 66 -19 30 -35 57 -35 61 0 3 -11 21 -26 40 -14 18 -21 33
-17 33 4 0 3 4 -2 8 -13 9 -75 111 -75 123 0 5 -4 9 -10 9 -5 0 -10 4 -10 10
0 9 -58 110 -69 120 -4 3 -17 25 -30 50 -14 25 -32 56 -42 70 -41 62 -139 229
-139 239 0 6 -4 11 -8 11 -5 0 -16 15 -25 33 -18 35 -24 45 -74 124 -18 29
-33 57 -33 63 0 5 -4 10 -10 10 -5 0 -10 5 -10 10 0 6 -17 37 -37 68 -20 31
-46 75 -57 97 -11 22 -23 42 -26 45 -3 3 -24 34 -45 70 -21 36 -45 73 -54 84
-9 10 -14 19 -12 20 3 0 -8 20 -22 43 -15 24 -27 47 -27 52 0 5 -3 11 -7 13
-10 4 -103 156 -103 168 0 5 -6 15 -13 22 -18 19 -77 116 -77 128 0 6 -4 10
-9 10 -5 0 -11 8 -14 18 -4 9 -16 34 -29 54 -68 110 -145 236 -157 261 -7 15
-17 27 -22 27 -5 0 -9 9 -9 19 0 11 -3 21 -8 23 -4 2 -34 48 -66 103 -33 55
-63 103 -69 106 -5 3 -8 9 -8 13 1 3 -5 16 -13 29 -46 73 -96 160 -96 167 0 5
-3 10 -7 12 -5 2 -16 17 -25 33 -19 32 -217 360 -256 423 -13 20 -25 45 -29
55 -3 9 -9 17 -14 17 -5 0 -9 6 -9 14 0 8 -6 21 -13 28 -6 7 -21 30 -32 51
-11 20 -22 37 -25 37 -4 0 -12 16 -20 35 -8 19 -17 35 -22 35 -4 0 -8 5 -8 11
0 6 -13 30 -30 54 -16 24 -30 46 -30 49 0 3 -27 47 -59 99 -32 52 -62 104 -66
116 -3 12 -11 21 -16 21 -6 0 -15 14 -20 30 -6 17 -14 30 -19 30 -4 0 -10 9
-13 20 -7 26 -21 25 -35 -2z"/>
</g>
</svg>
