<svg width="126" height="30" viewBox="0 0 126 30" fill="none" xmlns="http://www.w3.org/2000/svg">
<path d="M45.4204 23.24C44.3137 23.24 43.2404 23.0933 42.2004 22.8C41.1737 22.4933 40.3471 22.1 39.7204 21.62L40.8204 19.18C41.4204 19.62 42.1337 19.9733 42.9604 20.24C43.7871 20.5067 44.6137 20.64 45.4404 20.64C46.3604 20.64 47.0404 20.5067 47.4804 20.24C47.9204 19.96 48.1404 19.5933 48.1404 19.14C48.1404 18.8067 48.0071 18.5333 47.7404 18.32C47.4871 18.0933 47.1537 17.9133 46.7404 17.78C46.3404 17.6467 45.7937 17.5 45.1004 17.34C44.0337 17.0867 43.1604 16.8333 42.4804 16.58C41.8004 16.3267 41.2137 15.92 40.7204 15.36C40.2404 14.8 40.0004 14.0533 40.0004 13.12C40.0004 12.3067 40.2204 11.5733 40.6604 10.92C41.1004 10.2533 41.7604 9.72667 42.6404 9.34C43.5337 8.95333 44.6204 8.76 45.9004 8.76C46.7937 8.76 47.6671 8.86667 48.5204 9.08C49.3737 9.29333 50.1204 9.6 50.7604 10L49.7604 12.46C48.4671 11.7267 47.1737 11.36 45.8804 11.36C44.9737 11.36 44.3004 11.5067 43.8604 11.8C43.4337 12.0933 43.2204 12.48 43.2204 12.96C43.2204 13.44 43.4671 13.8 43.9604 14.04C44.4671 14.2667 45.2337 14.4933 46.2604 14.72C47.3271 14.9733 48.2004 15.2267 48.8804 15.48C49.5604 15.7333 50.1404 16.1333 50.6204 16.68C51.1137 17.2267 51.3604 17.9667 51.3604 18.9C51.3604 19.7 51.1337 20.4333 50.6804 21.1C50.2404 21.7533 49.5737 22.2733 48.6804 22.66C47.7871 23.0467 46.7004 23.24 45.4204 23.24ZM59.7143 12.08C60.7143 12.08 61.621 12.3133 62.4343 12.78C63.261 13.2333 63.9076 13.88 64.3743 14.72C64.841 15.5467 65.0743 16.5133 65.0743 17.62C65.0743 18.7267 64.841 19.7 64.3743 20.54C63.9076 21.3667 63.261 22.0133 62.4343 22.48C61.621 22.9333 60.7143 23.16 59.7143 23.16C58.341 23.16 57.261 22.7267 56.4743 21.86V26.88H53.3543V12.24H56.3343V13.48C57.1076 12.5467 58.2343 12.08 59.7143 12.08ZM59.1743 20.6C59.9743 20.6 60.6276 20.3333 61.1343 19.8C61.6543 19.2533 61.9143 18.5267 61.9143 17.62C61.9143 16.7133 61.6543 15.9933 61.1343 15.46C60.6276 14.9133 59.9743 14.64 59.1743 14.64C58.3743 14.64 57.7143 14.9133 57.1943 15.46C56.6876 15.9933 56.4343 16.7133 56.4343 17.62C56.4343 18.5267 56.6876 19.2533 57.1943 19.8C57.7143 20.3333 58.3743 20.6 59.1743 20.6ZM77.7029 17.66C77.7029 17.7 77.6829 17.98 77.6429 18.5H69.5029C69.6496 19.1667 69.9962 19.6933 70.5429 20.08C71.0896 20.4667 71.7696 20.66 72.5829 20.66C73.1429 20.66 73.6362 20.58 74.0629 20.42C74.5029 20.2467 74.9096 19.98 75.2829 19.62L76.9429 21.42C75.9296 22.58 74.4496 23.16 72.5029 23.16C71.2896 23.16 70.2162 22.9267 69.2829 22.46C68.3496 21.98 67.6296 21.32 67.1229 20.48C66.6162 19.64 66.3629 18.6867 66.3629 17.62C66.3629 16.5667 66.6096 15.62 67.1029 14.78C67.6096 13.9267 68.2962 13.2667 69.1629 12.8C70.0429 12.32 71.0229 12.08 72.1029 12.08C73.1562 12.08 74.1096 12.3067 74.9629 12.76C75.8162 13.2133 76.4829 13.8667 76.9629 14.72C77.4562 15.56 77.7029 16.54 77.7029 17.66ZM72.1229 14.44C71.4162 14.44 70.8229 14.64 70.3429 15.04C69.8629 15.44 69.5696 15.9867 69.4629 16.68H74.7629C74.6562 16 74.3629 15.46 73.8829 15.06C73.4029 14.6467 72.8162 14.44 72.1229 14.44ZM84.9801 23.16C83.8334 23.16 82.8001 22.9267 81.8801 22.46C80.9734 21.98 80.2601 21.32 79.7401 20.48C79.2334 19.64 78.9801 18.6867 78.9801 17.62C78.9801 16.5533 79.2334 15.6 79.7401 14.76C80.2601 13.92 80.9734 13.2667 81.8801 12.8C82.8001 12.32 83.8334 12.08 84.9801 12.08C86.1134 12.08 87.1001 12.32 87.9401 12.8C88.7934 13.2667 89.4134 13.94 89.8001 14.82L87.3801 16.12C86.8201 15.1333 86.0134 14.64 84.9601 14.64C84.1468 14.64 83.4734 14.9067 82.9401 15.44C82.4068 15.9733 82.1401 16.7 82.1401 17.62C82.1401 18.54 82.4068 19.2667 82.9401 19.8C83.4734 20.3333 84.1468 20.6 84.9601 20.6C86.0268 20.6 86.8334 20.1067 87.3801 19.12L89.8001 20.44C89.4134 21.2933 88.7934 21.96 87.9401 22.44C87.1001 22.92 86.1134 23.16 84.9801 23.16ZM98.6927 22.48C98.3861 22.7067 98.0061 22.88 97.5527 23C97.1127 23.1067 96.6461 23.16 96.1527 23.16C94.8727 23.16 93.8794 22.8333 93.1727 22.18C92.4794 21.5267 92.1327 20.5667 92.1327 19.3V14.88H90.4727V12.48H92.1327V9.86H95.2527V12.48H97.9327V14.88H95.2527V19.26C95.2527 19.7133 95.3661 20.0667 95.5927 20.32C95.8327 20.56 96.1661 20.68 96.5927 20.68C97.0861 20.68 97.5061 20.5467 97.8527 20.28L98.6927 22.48ZM103.424 13.66C103.797 13.14 104.297 12.7467 104.924 12.48C105.564 12.2133 106.297 12.08 107.124 12.08V14.96C106.777 14.9333 106.544 14.92 106.424 14.92C105.531 14.92 104.831 15.1733 104.324 15.68C103.817 16.1733 103.564 16.92 103.564 17.92V23H100.444V12.24H103.424V13.66ZM113.261 12.08C114.927 12.08 116.207 12.48 117.101 13.28C117.994 14.0667 118.441 15.26 118.441 16.86V23H115.521V21.66C114.934 22.66 113.841 23.16 112.241 23.16C111.414 23.16 110.694 23.02 110.081 22.74C109.481 22.46 109.021 22.0733 108.701 21.58C108.381 21.0867 108.221 20.5267 108.221 19.9C108.221 18.9 108.594 18.1133 109.341 17.54C110.101 16.9667 111.267 16.68 112.841 16.68H115.321C115.321 16 115.114 15.48 114.701 15.12C114.287 14.7467 113.667 14.56 112.841 14.56C112.267 14.56 111.701 14.6533 111.141 14.84C110.594 15.0133 110.127 15.2533 109.741 15.56L108.621 13.38C109.207 12.9667 109.907 12.6467 110.721 12.42C111.547 12.1933 112.394 12.08 113.261 12.08ZM113.021 21.06C113.554 21.06 114.027 20.94 114.441 20.7C114.854 20.4467 115.147 20.08 115.321 19.6V18.5H113.181C111.901 18.5 111.261 18.92 111.261 19.76C111.261 20.16 111.414 20.48 111.721 20.72C112.041 20.9467 112.474 21.06 113.021 21.06ZM121.264 8.16H124.384V23H121.264V8.16Z" fill="#DDE5F2"/>
<g clip-path="url(#clip0)">
<path d="M13.3193 16.0486V29.9751L26.6381 22.097L13.3193 16.0486Z" fill="#FAAF40"/>
<path d="M13.3193 0V16.0484L26.6381 22.0969L13.3193 0Z" fill="#CAD5DA"/>
<path d="M13.3188 16.0486V29.9751L0 22.097L13.3188 16.0486Z" fill="url(#paint0_linear)"/>
<path d="M13.3188 0V16.0484L0 22.0969L13.3188 0Z" fill="url(#paint1_linear)"/>
<path d="M13.3193 4.82715L17.3178 11.7521L13.3193 13.7271V4.82715Z" fill="#818283"/>
<path d="M13.3179 4.82715V13.7271L9.31946 11.7521L13.3179 4.82715Z" fill="#231F20"/>
</g>
<defs>
<linearGradient id="paint0_linear" x1="0" y1="23.0121" x2="13.3188" y2="23.0121" gradientUnits="userSpaceOnUse">
<stop stop-color="#EC1C24"/>
<stop offset="0.11" stop-color="#ED2225"/>
<stop offset="0.24" stop-color="#EE3226"/>
<stop offset="0.4" stop-color="#F04D29"/>
<stop offset="0.57" stop-color="#F4732D"/>
<stop offset="0.75" stop-color="#F8A432"/>
<stop offset="0.94" stop-color="#FDDE38"/>
<stop offset="1" stop-color="#FFF23A"/>
</linearGradient>
<linearGradient id="paint1_linear" x1="0" y1="11.0484" x2="13.3188" y2="11.0484" gradientUnits="userSpaceOnUse">
<stop stop-color="#0082FF"/>
<stop offset="0.1" stop-color="#0685FF"/>
<stop offset="0.23" stop-color="#168CFE"/>
<stop offset="0.37" stop-color="#3199FC"/>
<stop offset="0.53" stop-color="#57AAFA"/>
<stop offset="0.7" stop-color="#88C1F8"/>
<stop offset="0.87" stop-color="#C2DBF5"/>
<stop offset="1" stop-color="#F1F1F2"/>
</linearGradient>
<clipPath id="clip0">
<rect width="26.6146" height="30" fill="white"/>
</clipPath>
</defs>
</svg>
